<?xml version="1.0" encoding="UTF-8" standalone="no"?>
<!-- Generator: Adobe Illustrator 19.0.0, SVG Export Plug-In . SVG Version: 6.00 Build 0)  -->

<svg
   version="1.1"
   id="Layer_1"
   x="0px"
   y="0px"
   viewBox="0 0 502 502"
   style="enable-background:new 0 0 502 502;"
   xml:space="preserve"
   width="512"
   height="512"
   sodipodi:docname="pointer-svgrepo-com.svg"
   inkscape:version="1.2.1 (9c6d41e410, 2022-07-14)"
   xmlns:inkscape="http://www.inkscape.org/namespaces/inkscape"
   xmlns:sodipodi="http://sodipodi.sourceforge.net/DTD/sodipodi-0.dtd"
   xmlns="http://www.w3.org/2000/svg"
   xmlns:svg="http://www.w3.org/2000/svg"><defs
   id="defs27">
	
	
	
	

		
	
		
	
		
		
	
		
		
	</defs><sodipodi:namedview
   id="namedview25"
   pagecolor="#ffffff"
   bordercolor="#000000"
   borderopacity="0.25"
   inkscape:showpageshadow="2"
   inkscape:pageopacity="0.0"
   inkscape:pagecheckerboard="0"
   inkscape:deskcolor="#d1d1d1"
   showgrid="false"
   inkscape:zoom="1.5703125"
   inkscape:cx="136.59701"
   inkscape:cy="256.31841"
   inkscape:window-width="1920"
   inkscape:window-height="991"
   inkscape:window-x="-9"
   inkscape:window-y="-9"
   inkscape:window-maximized="1"
   inkscape:current-layer="Layer_1" />
<path
   style="fill:#4d7e3e;fill-opacity:1.0"
   d="M 430.01,189.01 C 430.01,287.875 251,492 251,492 251,492 71.99,287.875 71.99,189.01 71.99,90.145 152.135,10 251,10 c 98.865,0 179.01,80.146 179.01,179.01 z"
   id="path2" /><path
   d="m 251,502 c -2.88,0 -5.62,-1.241 -7.519,-3.406 C 236.07,490.144 61.989,290.472 61.989,189.011 61.989,84.79 146.779,0 251,0 355.221,0 440.011,84.79 440.011,189.011 440.011,290.472 265.929,490.144 258.519,498.594 256.62,500.759 253.88,502 251,502 Z M 251,20 C 157.807,20 81.989,95.818 81.989,189.011 c 0,38.347 30.317,101.559 87.675,182.801 33.237,47.079 66.775,87.639 81.335,104.825 14.58,-17.212 48.187,-57.857 81.435,-104.964 C 389.727,290.498 420.01,227.334 420.01,189.011 420.011,95.818 344.193,20 251,20 Z"
   id="path4" /><circle
   style="fill:#c1dcb8;fill-opacity:0.57317072"
   cx="251"
   cy="185"
   r="124"
   id="circle8" /><path
   d="m 251,319 c -73.888,0 -134,-60.112 -134,-134 0,-73.888 60.112,-134 134,-134 73.888,0 134,60.112 134,134 0,73.888 -60.112,134 -134,134 z m 0,-248 c -62.86,0 -114,51.141 -114,114 0,62.859 51.14,114 114,114 62.86,0 114,-51.141 114,-114 C 365,122.141 313.86,71 251,71 Z"
   id="path10" /><path
   d="m 247.076,444.988 c -3.006,0 -5.978,-1.35 -7.947,-3.921 l -8.38,-10.943 c -3.358,-4.385 -2.525,-10.661 1.859,-14.02 4.386,-3.357 10.662,-2.525 14.02,1.859 l 8.38,10.943 c 3.358,4.385 2.525,10.661 -1.859,14.02 -1.814,1.389 -3.952,2.062 -6.073,2.062 z"
   id="path14" /><path
   d="m 212.498,399.836 c -3.006,0 -5.978,-1.35 -7.947,-3.921 L 179.405,363.08 c -3.358,-4.385 -2.526,-10.661 1.859,-14.02 4.385,-3.356 10.661,-2.526 14.02,1.859 l 25.146,32.835 c 3.358,4.385 2.526,10.661 -1.859,14.02 -1.815,1.389 -3.952,2.062 -6.073,2.062 z"
   id="path18" />















</svg>
