<svg xmlns="http://www.w3.org/2000/svg" version="1.1" xmlns:xlink="http://www.w3.org/1999/xlink" xmlns:svgjs="http://svgjs.dev/svgjs" width="1000" height="260" viewBox="0 0 1000 260"><g transform="matrix(1,0,0,1,-0.6056348047761162,0.3107491084919616)"><svg viewBox="0 0 396 103" data-background-color="#ffffff" preserveAspectRatio="xMidYMid meet" height="260" width="1000" xmlns="http://www.w3.org/2000/svg" xmlns:xlink="http://www.w3.org/1999/xlink"><defs></defs><g id="tight-bounds" transform="matrix(1,0,0,1,0.24008861730862918,-0.12310445451797136)"><svg viewBox="0 0 395.52 103.24620890903594" height="103.24620890903594" width="395.52"><g><svg viewBox="0 0 395.52 103.24620890903594" height="103.24620890903594" width="395.52"><g><svg viewBox="0 0 395.52 103.24620890903594" height="103.24620890903594" width="395.52"><g><svg viewBox="0 0 395.52 103.24620890903594" height="103.24620890903594" width="395.52"><g><svg viewBox="0 0 395.52 103.24620890903594" height="103.24620890903594" width="395.52"><path d="M394.594 22.144C392.735 11.427 387.435 8.448 387.435 8.448 371.165-2.59 350.86-0.211 332.619 1.375 300.414 1.439 268.339 3.797 236.208 5.062 168.767 5.254 100.749 2.082 33.643 9.906 27.339 12.306-6.54 10.377 1.121 23.516 3.129 28.982 10.456 35.048 10.232 40.063 11.236 40.942 12.631 38.927 13.226 40.192 15.309 43.6 18.711 41.992 21.501 44.007 17.614 49.387 20.403 53.866 23.062 58.56 18.377 59.782 12.371 59.203 9.675 63.254 9.396 66.191 7.89 65.634 6.235 65.505 5.026 65.419 2.59 65.741 2.999 66.662 4.394 69.813-1.594 71.635 2.162 74.722-0.422 78.065 3.948 80.959 3.353 84.581 3.278 85.31 3.687 85.931 4.338 86.103 7.22 87.025 3.018 88.825 3.464 90.775 33.029 104.107 65.104 94.891 95.394 101.021 103.259 96.734 97.346 102.543 100.489 101.642 102.943 100.592 104.728 104.943 107.499 102.478 107.927 101.771 107.276 100.099 108.8 100.421 109.6 100.592 110.307 100.549 110.418 99.563 110.586 98.084 109.117 99.006 108.726 98.234 112.947 94.334 111.906 103.614 115.866 103.229 115.68 102.093 114.528 100.464 116.889 100.678 119.232 99.049 119.306 97.699 121.389 101.364 121.463 102.157 121.835 102.714 122.43 103.1 128.938 99.113 135.409 104.515 142.233 102.714 146.417 100.742 150.433 103.786 154.672 103.036 156.16 102.436 157.666 101.364 159.098 103.164 176.632 103.55 195.319 101.943 211.943 103.229 256.364 100.828 303.835 104.215 350.674 101.042 361.719 99.821 373.192 98.084 383.958 96.691 383.958 96.691 392.679 92.876 392.679 75.729S394.538 60.725 394.817 47.072C395.096 33.419 396.398 32.861 394.538 22.144Z" opacity="1" fill="#4d7e3e" data-fill-palette-color="tertiary"></path><g transform="matrix(1,0,0,1,55.76832,26.230666666666668)"><svg width="283.98335999999995" viewBox="5.349999904632568 -38.599998474121094 220.58999633789062 39.44999694824219" height="50.784875575702614" data-palette-color="#ffffff"><path d="M18.6-37.9Q31-37.9 31-26.6L31-26.6Q31-21.1 27.9-18.23 24.8-15.35 18.6-15.35L18.6-15.35 10.2-15.35 10.2 0 5.35 0 5.35-37.9 18.6-37.9ZM26.05-26.6Q26.05-30.3 24.2-31.98 22.35-33.65 18.6-33.65L18.6-33.65 10.2-33.65 10.2-19.65 18.6-19.65Q26-19.65 26.05-26.6L26.05-26.6ZM53.9 0.85Q48.05 0.85 43.97-1.73 39.9-4.3 37.85-8.78 35.8-13.25 35.8-18.9L35.8-18.9Q35.8-24.45 37.85-28.9 39.9-33.35 43.97-35.98 48.05-38.6 53.9-38.6L53.9-38.6Q59.7-38.6 63.75-35.98 67.8-33.35 69.87-28.88 71.95-24.4 71.95-18.9L71.95-18.9Q71.95-13.25 69.9-8.78 67.85-4.3 63.77-1.73 59.7 0.85 53.9 0.85L53.9 0.85ZM53.9-3.4Q58-3.4 60.95-5.45 63.9-7.5 65.42-11.05 66.95-14.6 66.95-19.05L66.95-19.05Q66.95-23.35 65.4-26.83 63.85-30.3 60.9-32.33 57.95-34.35 53.9-34.35L53.9-34.35Q49.7-34.35 46.75-32.3 43.8-30.25 42.3-26.75 40.8-23.25 40.8-18.9L40.8-18.9Q40.8-14.45 42.3-10.95 43.8-7.45 46.75-5.43 49.7-3.4 53.9-3.4L53.9-3.4ZM80.15 0L80.15-37.9 85-37.9 85 0 80.15 0ZM119.64-37.9L124.49-37.9 124.49 0 119.19 0 100.54-29.75 100.54 0 95.69 0 95.69-37.9 100.94-37.9 119.64-8.15 119.64-37.9ZM159.54-37.9L159.54-33.55 148.14-33.55 148.14 0 143.24 0 143.24-33.55 131.84-33.55 131.84-37.9 159.54-37.9ZM171.74-4.2L190.09-4.2 190.09 0 166.89 0 166.89-37.9 189.84-37.9 189.84-33.7 171.74-33.7 171.74-21.15 187.34-21.15 187.34-16.95 171.74-16.95 171.74-4.2ZM220.39 0L210.64-16.05 203.29-16.05 203.29 0 198.44 0 198.44-37.9 211.69-37.9Q224.09-37.9 224.09-26.9L224.09-26.9Q224.09-22.55 222.01-19.88 219.94-17.2 215.79-16.4L215.79-16.4 225.94 0 220.39 0ZM203.29-33.65L203.29-20.3 211.69-20.3Q219.09-20.3 219.14-26.9L219.14-26.9Q219.14-30.4 217.29-32.02 215.44-33.65 211.69-33.65L211.69-33.65 203.29-33.65Z" opacity="1" transform="matrix(1,0,0,1,0,0)" fill="#ffffff" class="undefined-text-0" data-fill-palette-color="quaternary" id="text-0"></path></svg></g></svg></g></svg></g></svg></g><g></g></svg></g></svg><rect width="395.52" height="103.24620890903594" fill="none" stroke="none" visibility="hidden"></rect></g></svg></g></svg>