<?xml version="1.0" standalone="no"?>
<!DOCTYPE svg PUBLIC "-//W3C//DTD SVG 20010904//EN"
 "http://www.w3.org/TR/2001/REC-SVG-20010904/DTD/svg10.dtd">
<svg version="1.0" xmlns="http://www.w3.org/2000/svg"
 width="700.000000pt" height="700.000000pt" viewBox="0 0 700.000000 700.000000"
 preserveAspectRatio="xMidYMid meet">
<metadata>
Created by potrace 1.14, written by Peter Selinger 2001-2017
</metadata>
<g transform="translate(0.000000,700.000000) scale(0.100000,-0.100000)"
fill="#000000" stroke="none">
<path d="M3308 6995 c-2 -2 -32 -6 -68 -9 -212 -18 -546 -99 -725 -175 -154
-67 -487 -248 -515 -281 -3 -3 -18 -14 -35 -24 -149 -94 -408 -347 -564 -549
-202 -263 -397 -668 -456 -947 -1 -8 -8 -33 -13 -55 -19 -68 -51 -270 -58
-357 -26 -327 7 -565 127 -915 74 -215 267 -638 382 -838 13 -22 37 -65 54
-95 55 -100 147 -255 253 -425 74 -119 157 -249 165 -258 6 -7 21 -29 34 -50
21 -34 188 -278 227 -332 8 -11 57 -81 110 -155 111 -157 504 -678 558 -740
12 -14 42 -52 67 -85 51 -66 336 -415 469 -572 112 -134 175 -161 250 -110 27
17 161 169 338 382 246 297 709 899 895 1165 29 41 70 100 92 130 133 189 495
740 495 755 0 3 19 35 43 72 24 38 69 115 101 173 33 58 77 137 99 175 108
192 293 596 359 785 52 151 102 335 114 420 3 25 8 48 11 53 2 4 7 44 11 90
33 447 -77 959 -295 1367 -46 85 -171 291 -183 300 -3 3 -30 37 -59 75 -126
168 -366 407 -511 508 -212 148 -437 275 -615 345 -162 64 -404 128 -570 152
-44 6 -93 13 -110 16 -33 6 -471 14 -477 9z"/>
</g>
</svg>
